<svg width="461" height="768" viewBox="0 0 461 768" fill="none" xmlns="http://www.w3.org/2000/svg">
<g clip-path="url(#clip0_573_2)">
<g filter="url(#filter0_d_573_2)">
<path d="M380.222 -15.5C393.391 -7.41944 98.6017 55.167 127.232 105.812C155.72 156.203 125.775 191.621 117.812 250.508C113.337 283.598 112.964 318.078 119.367 351.612C123.859 375.141 133.48 403.273 151.597 432.469C172.636 466.374 208.473 489.797 243.512 512.119C283.547 537.625 330.145 572.045 356.436 605.619C368.526 625.274 390.852 674.46 396.136 731.044C397.852 749.414 398.895 767.936 405.022 785.783C425.245 844.681 472.322 918.368 549.045 880.424" stroke="#081F20" stroke-width="2" stroke-linejoin="round"/>
</g>
<g filter="url(#filter1_d_573_2)">
<path d="M619.809 930.045C606.042 921.27 403.435 872.444 362.741 817.203C319.016 757.846 453.187 725.423 466.855 653.441C471.716 627.842 461.026 601.439 451.602 576.685C438.912 543.35 414.94 497.731 374.61 451.433C355.061 428.991 329.968 411.703 304.396 395.576C259.61 367.333 199.128 324.543 161.324 282.834C143.746 260.163 105.736 201.43 83.108 135.113C78.7258 122.27 72.5267 107.279 81.5804 97.1548C135.807 36.5151 543.617 -29.1081 488.223 15" stroke="#081F20" stroke-width="2" stroke-linejoin="round"/>
</g>
<g filter="url(#filter2_d_573_2)">
<path d="M90.7317 155.519C102.48 162.601 149.282 186.403 158.743 224.779C167.159 258.916 125.792 279.53 89.6946 312.114C59.7509 339.143 31.2271 372.46 25.2416 412.894C24.8609 415.465 24.5848 418.092 24.4271 420.768C21.5225 470.069 75.5979 503.004 119.096 532.777C136.218 544.497 152.996 557.404 166.405 570.413C183.269 586.775 193.099 608.824 191.744 630.841C190.957 643.621 188.107 658.591 181.701 674.486C172.024 698.498 167.623 723.469 194.9 728.013C270.406 740.591 458.739 727.419 559.723 741.5" stroke="#081F20" stroke-width="2" stroke-linejoin="round"/>
</g>
</g>
<defs>
<filter id="filter0_d_573_2" x="109.456" y="-16.2828" width="444.133" height="922.068" filterUnits="userSpaceOnUse" color-interpolation-filters="sRGB">
<feFlood flood-opacity="0" result="BackgroundImageFix"/>
<feColorMatrix in="SourceAlpha" type="matrix" values="0 0 0 0 0 0 0 0 0 0 0 0 0 0 0 0 0 0 127 0" result="hardAlpha"/>
<feOffset dy="10"/>
<feGaussianBlur stdDeviation="2"/>
<feComposite in2="hardAlpha" operator="out"/>
<feColorMatrix type="matrix" values="0 0 0 0 0 0 0 0 0 0 0 0 0 0 0 0 0 0 0.25 0"/>
<feBlend mode="normal" in2="BackgroundImageFix" result="effect1_dropShadow_573_2"/>
<feBlend mode="normal" in="SourceGraphic" in2="effect1_dropShadow_573_2" result="shape"/>
</filter>
<filter id="filter1_d_573_2" x="71.9019" y="-0.38784" width="552.468" height="945.233" filterUnits="userSpaceOnUse" color-interpolation-filters="sRGB">
<feFlood flood-opacity="0" result="BackgroundImageFix"/>
<feColorMatrix in="SourceAlpha" type="matrix" values="0 0 0 0 0 0 0 0 0 0 0 0 0 0 0 0 0 0 127 0" result="hardAlpha"/>
<feOffset dy="10"/>
<feGaussianBlur stdDeviation="2"/>
<feComposite in2="hardAlpha" operator="out"/>
<feColorMatrix type="matrix" values="0 0 0 0 0 0 0 0 0 0 0 0 0 0 0 0 0 0 0.25 0"/>
<feBlend mode="normal" in2="BackgroundImageFix" result="effect1_dropShadow_573_2"/>
<feBlend mode="normal" in="SourceGraphic" in2="effect1_dropShadow_573_2" result="shape"/>
</filter>
<filter id="filter2_d_573_2" x="19.3005" y="154.694" width="544.483" height="601.781" filterUnits="userSpaceOnUse" color-interpolation-filters="sRGB">
<feFlood flood-opacity="0" result="BackgroundImageFix"/>
<feColorMatrix in="SourceAlpha" type="matrix" values="0 0 0 0 0 0 0 0 0 0 0 0 0 0 0 0 0 0 127 0" result="hardAlpha"/>
<feOffset dy="10"/>
<feGaussianBlur stdDeviation="2"/>
<feComposite in2="hardAlpha" operator="out"/>
<feColorMatrix type="matrix" values="0 0 0 0 0 0 0 0 0 0 0 0 0 0 0 0 0 0 0.25 0"/>
<feBlend mode="normal" in2="BackgroundImageFix" result="effect1_dropShadow_573_2"/>
<feBlend mode="normal" in="SourceGraphic" in2="effect1_dropShadow_573_2" result="shape"/>
</filter>
<clipPath id="clip0_573_2">
<rect width="461" height="768" fill="white"/>
</clipPath>
</defs>
</svg>
