<svg width="630" height="147" viewBox="0 0 630 147" fill="none" xmlns="http://www.w3.org/2000/svg">
<g filter="url(#filter0_d_562_21)">
<path d="M526.696 119.584C526.696 119.584 526.616 119.552 526.456 119.488C526.296 119.424 526.096 119.344 525.856 119.248C525.632 119.136 525.416 119.008 525.208 118.864L525.184 118.648C525.184 118.648 525.288 118.552 525.496 118.36C525.704 118.152 525.976 117.912 526.312 117.64C526.648 117.352 527 117.08 527.368 116.824L528.064 117.208L528.136 117.376C527.88 117.712 527.64 118.056 527.416 118.408C527.208 118.744 527.032 119.024 526.888 119.248C526.76 119.472 526.696 119.584 526.696 119.584ZM527.176 116.44C526.776 116.296 526.376 116.176 525.976 116.08C525.592 115.968 525.272 115.888 525.016 115.84C524.76 115.776 524.632 115.744 524.632 115.744C524.632 115.744 524.632 115.656 524.632 115.48C524.648 115.304 524.672 115.096 524.704 114.856C524.736 114.6 524.784 114.352 524.848 114.112L525.064 114.016C525.064 114.016 525.184 114.088 525.424 114.232C525.68 114.36 525.992 114.544 526.36 114.784C526.744 115.008 527.112 115.256 527.464 115.528L527.32 116.32L527.176 116.44ZM529.84 119.992L529.624 119.968C529.624 119.968 529.56 119.84 529.432 119.584C529.32 119.312 529.176 118.976 529 118.576C528.84 118.176 528.696 117.76 528.568 117.328L529.144 116.776L529.336 116.752C529.592 117.104 529.84 117.44 530.08 117.76C530.336 118.064 530.544 118.32 530.704 118.528C530.88 118.72 530.968 118.816 530.968 118.816C530.968 118.816 530.912 118.888 530.8 119.032C530.704 119.16 530.568 119.312 530.392 119.488C530.232 119.664 530.048 119.832 529.84 119.992ZM527.92 115.336L527.776 115.24C527.776 114.808 527.768 114.392 527.752 113.992C527.736 113.576 527.712 113.24 527.68 112.984C527.664 112.728 527.656 112.6 527.656 112.6C527.656 112.6 527.736 112.576 527.896 112.528C528.072 112.48 528.28 112.432 528.52 112.384C528.776 112.336 529.024 112.312 529.264 112.312L529.432 112.48C529.432 112.48 529.4 112.624 529.336 112.912C529.288 113.184 529.208 113.528 529.096 113.944C529 114.36 528.88 114.784 528.736 115.216L527.92 115.336ZM529.408 116.32L529.072 115.624L529.096 115.432C529.512 115.304 529.904 115.168 530.272 115.024C530.656 114.88 530.968 114.76 531.208 114.664C531.448 114.552 531.568 114.496 531.568 114.496C531.568 114.496 531.616 114.568 531.712 114.712C531.808 114.856 531.912 115.04 532.024 115.264C532.152 115.472 532.256 115.696 532.336 115.936L532.24 116.152C532.24 116.152 532.096 116.168 531.808 116.2C531.52 116.232 531.16 116.264 530.728 116.296C530.296 116.328 529.856 116.336 529.408 116.32ZM534.214 133.624L532.99 133.72L533.014 129.016L533.206 128.776C534.102 128.504 534.806 128.144 535.318 127.696C535.83 127.248 536.214 126.68 536.47 125.992C536.742 125.304 536.95 124.48 537.094 123.52C537.238 122.544 537.39 121.416 537.55 120.136L537.934 116.92C537.982 116.584 537.942 116.344 537.814 116.2C537.686 116.04 537.438 115.944 537.07 115.912C536.718 115.864 536.198 115.848 535.51 115.864L535.462 115.768L535.63 114.712H544.03C544.366 114.712 544.702 114.712 545.038 114.712C545.374 114.696 545.694 114.68 545.998 114.664C546.302 114.632 546.566 114.6 546.79 114.568L546.694 115.648C546.022 115.728 545.574 115.856 545.35 116.032C545.126 116.208 544.998 116.512 544.966 116.944C544.918 117.776 544.87 118.688 544.822 119.68C544.79 120.656 544.758 121.64 544.726 122.632C544.694 123.608 544.67 124.52 544.654 125.368C544.638 126.2 544.63 126.896 544.63 127.456C544.63 127.936 544.678 128.264 544.774 128.44C544.886 128.616 545.078 128.712 545.35 128.728L546.79 128.776L546.982 129.016L547.006 133.624L545.782 133.72L545.59 131.8C545.526 131.048 545.286 130.56 544.87 130.336C544.47 130.112 543.894 130 543.142 130H536.854C536.102 130 535.526 130.112 535.126 130.336C534.726 130.56 534.486 131.048 534.406 131.8L534.214 133.624ZM535.846 129.064L533.878 128.824H540.718C541.31 128.824 541.758 128.768 542.062 128.656C542.382 128.544 542.606 128.32 542.734 127.984C542.862 127.632 542.926 127.128 542.926 126.472L542.95 117.184C542.95 116.736 542.862 116.424 542.686 116.248C542.526 116.056 542.238 115.96 541.822 115.96L538.678 115.936L539.566 115.144L538.942 120.52C538.798 121.752 538.63 122.912 538.438 124C538.246 125.088 537.95 126.04 537.55 126.856C537.15 127.656 536.566 128.264 535.798 128.68L535.846 129.064ZM553.694 130.288C552.782 130.288 551.974 130.064 551.27 129.616C550.566 129.168 550.014 128.544 549.614 127.744C549.23 126.928 549.038 126 549.038 124.96C549.038 123.808 549.278 122.776 549.758 121.864C550.254 120.936 550.926 120.208 551.774 119.68C552.622 119.136 553.566 118.864 554.606 118.864C555.518 118.864 556.326 119.088 557.03 119.536C557.734 119.984 558.278 120.608 558.662 121.408C559.062 122.208 559.262 123.136 559.262 124.192C559.262 125.328 559.014 126.36 558.518 127.288C558.038 128.216 557.374 128.952 556.526 129.496C555.694 130.024 554.75 130.288 553.694 130.288ZM554.366 129.112C555.262 129.112 555.974 128.752 556.502 128.032C557.03 127.296 557.294 126.304 557.294 125.056C557.294 124.096 557.15 123.248 556.862 122.512C556.574 121.776 556.174 121.2 555.662 120.784C555.15 120.368 554.558 120.16 553.886 120.16C552.99 120.16 552.278 120.528 551.75 121.264C551.222 122 550.958 123 550.958 124.264C550.958 125.224 551.102 126.072 551.39 126.808C551.678 127.528 552.078 128.096 552.59 128.512C553.102 128.912 553.694 129.112 554.366 129.112ZM566.195 130.288C565.187 130.288 564.307 130.072 563.555 129.64C562.803 129.192 562.219 128.576 561.803 127.792C561.387 126.992 561.179 126.056 561.179 124.984C561.179 123.832 561.419 122.8 561.899 121.888C562.395 120.96 563.059 120.224 563.891 119.68C564.739 119.136 565.683 118.864 566.723 118.864C567.235 118.864 567.699 118.904 568.115 118.984C568.547 119.048 568.891 119.12 569.147 119.2C569.403 119.28 569.531 119.32 569.531 119.32L569.603 119.488C569.603 119.488 569.563 119.632 569.483 119.92C569.419 120.208 569.347 120.608 569.267 121.12C569.187 121.616 569.131 122.176 569.099 122.8L568.115 122.872V122.128C568.115 121.536 567.931 121.064 567.563 120.712C567.211 120.344 566.739 120.16 566.147 120.16C565.171 120.16 564.419 120.512 563.891 121.216C563.363 121.904 563.099 122.888 563.099 124.168C563.099 125.56 563.387 126.664 563.963 127.48C564.555 128.28 565.355 128.68 566.363 128.68C566.811 128.68 567.243 128.616 567.659 128.488C568.075 128.344 568.411 128.208 568.667 128.08C568.939 127.952 569.075 127.888 569.075 127.888L569.219 127.936L569.483 128.68C569.483 128.68 569.371 128.76 569.147 128.92C568.923 129.08 568.635 129.272 568.283 129.496C567.931 129.704 567.563 129.888 567.179 130.048C566.811 130.208 566.483 130.288 566.195 130.288ZM573.122 130.096L573.266 129.112C573.826 129.064 574.234 129 574.49 128.92C574.746 128.824 574.906 128.648 574.97 128.392C575.05 128.12 575.09 127.712 575.09 127.168V120.112C574.466 120.128 573.97 120.16 573.602 120.208C573.25 120.24 572.978 120.328 572.786 120.472C572.594 120.616 572.45 120.84 572.354 121.144C572.274 121.432 572.194 121.832 572.114 122.344L571.082 122.416C571.114 122.144 571.146 121.864 571.178 121.576C571.21 121.288 571.234 121 571.25 120.712C571.282 120.408 571.306 120.12 571.322 119.848C571.338 119.576 571.346 119.336 571.346 119.128L571.49 118.96L573.098 119.152H578.762L580.394 118.96L580.538 119.128C580.554 119.496 580.578 119.888 580.61 120.304C580.642 120.704 580.674 121.088 580.706 121.456C580.754 121.808 580.786 122.104 580.802 122.344L579.77 122.416C579.69 121.888 579.602 121.48 579.506 121.192C579.426 120.888 579.298 120.664 579.122 120.52C578.946 120.376 578.682 120.28 578.33 120.232C577.994 120.168 577.53 120.128 576.938 120.112C576.89 120.56 576.842 121.216 576.794 122.08C576.762 122.944 576.73 123.888 576.698 124.912C576.682 125.936 576.674 126.92 576.674 127.864C576.674 128.28 576.754 128.576 576.914 128.752C577.074 128.928 577.33 129.016 577.682 129.016C577.89 129.016 578.082 129.016 578.258 129.016C578.45 129 578.594 128.984 578.69 128.968L578.738 129.04L578.57 130.072C578.362 130.072 578.13 130.064 577.874 130.048C577.618 130.048 577.362 130.04 577.106 130.024C576.85 130.024 576.602 130.016 576.362 130C576.138 130 575.946 130 575.786 130C575.626 130 575.434 130 575.21 130C575.002 130.016 574.77 130.024 574.514 130.024C574.274 130.04 574.026 130.048 573.77 130.048C573.53 130.064 573.314 130.08 573.122 130.096ZM590.146 130.288C589.506 130.288 589.002 130.128 588.634 129.808C588.282 129.472 588.074 128.984 588.01 128.344L587.914 128.32C587.53 128.704 587.162 129.04 586.81 129.328C586.474 129.6 586.17 129.816 585.898 129.976C585.642 130.12 585.434 130.192 585.274 130.192C584.682 130.192 584.154 130.064 583.69 129.808C583.226 129.552 582.858 129.2 582.586 128.752C582.33 128.304 582.202 127.792 582.202 127.216C582.202 126.752 582.314 126.344 582.538 125.992C582.778 125.64 583.09 125.408 583.474 125.296L588.034 124.048L588.058 122.992C588.058 122.192 587.874 121.568 587.506 121.12C587.138 120.672 586.618 120.448 585.946 120.448C585.498 120.448 585.026 120.552 584.53 120.76C584.034 120.968 583.546 121.264 583.066 121.648L582.946 121.576L582.658 120.544C583.074 120.304 583.538 120.056 584.05 119.8C584.562 119.528 585.05 119.304 585.514 119.128C585.978 118.952 586.33 118.864 586.57 118.864C587.274 118.864 587.874 118.992 588.37 119.248C588.866 119.488 589.242 119.84 589.498 120.304C589.77 120.752 589.906 121.304 589.906 121.96C589.906 122.168 589.882 122.504 589.834 122.968C589.802 123.432 589.754 123.952 589.69 124.528C589.626 125.088 589.57 125.632 589.522 126.16C589.49 126.688 589.474 127.128 589.474 127.48C589.474 127.832 589.562 128.104 589.738 128.296C589.914 128.488 590.154 128.584 590.458 128.584C590.73 128.584 591.002 128.52 591.274 128.392C591.546 128.248 591.754 128.112 591.898 127.984L592.234 128.368C592.106 128.576 591.93 128.816 591.706 129.088C591.498 129.344 591.258 129.584 590.986 129.808C590.73 130.032 590.45 130.192 590.146 130.288ZM585.682 128.56C585.986 128.56 586.338 128.456 586.738 128.248C587.154 128.024 587.53 127.744 587.866 127.408L587.986 124.96L584.722 125.944C584.258 126.088 584.026 126.424 584.026 126.952C584.026 127.4 584.178 127.784 584.482 128.104C584.802 128.408 585.202 128.56 585.682 128.56ZM595.616 130C595.296 130 594.96 130.016 594.608 130.048C594.256 130.08 593.952 130.112 593.696 130.144C593.456 130.176 593.336 130.192 593.336 130.192L593.456 129.16C594.016 129.064 594.4 128.92 594.608 128.728C594.816 128.536 594.92 128.216 594.92 127.768L594.944 121.024C594.944 120.672 594.896 120.44 594.8 120.328C594.704 120.2 594.52 120.136 594.248 120.136C594.136 120.136 594 120.144 593.84 120.16C593.68 120.176 593.6 120.184 593.6 120.184L593.552 120.088L593.696 119.128C593.696 119.128 593.824 119.128 594.08 119.128C594.352 119.128 594.664 119.136 595.016 119.152C595.368 119.152 595.656 119.152 595.88 119.152C596.12 119.152 596.424 119.144 596.792 119.128C597.176 119.112 597.52 119.104 597.824 119.104C598.128 119.088 598.28 119.08 598.28 119.08C599.496 119.08 600.424 119.304 601.064 119.752C601.72 120.2 602.048 120.84 602.048 121.672C602.048 122.248 601.856 122.76 601.472 123.208C601.104 123.656 600.584 124.016 599.912 124.288C600.792 124.464 601.488 124.776 602 125.224C602.512 125.656 602.768 126.2 602.768 126.856C602.768 127.48 602.56 128.048 602.144 128.56C601.744 129.056 601.2 129.448 600.512 129.736C599.824 130.024 599.064 130.168 598.232 130.168C598.04 130.168 597.832 130.16 597.608 130.144C597.4 130.128 597.184 130.104 596.96 130.072C596.752 130.056 596.528 130.04 596.288 130.024C596.064 130.008 595.84 130 595.616 130ZM596.552 125.08L596.48 127.96C596.48 128.36 596.64 128.648 596.96 128.824C597.28 128.984 597.808 129.064 598.544 129.064C599.28 129.064 599.848 128.888 600.248 128.536C600.664 128.184 600.872 127.712 600.872 127.12C600.872 126.016 600.072 125.328 598.472 125.056L596.552 125.08ZM596.6 123.928L598.592 124.072C598.592 124.072 598.672 124.04 598.832 123.976C599.008 123.912 599.208 123.808 599.432 123.664C599.656 123.52 599.848 123.312 600.008 123.04C600.184 122.768 600.272 122.432 600.272 122.032C600.272 120.736 599.224 120.088 597.128 120.088C596.904 120.088 596.792 120.208 596.792 120.448L596.6 123.928ZM613.823 130.24C613.487 130.24 613.143 130.104 612.791 129.832C612.439 129.56 612.103 129.168 611.783 128.656L609.623 125.032H606.887V123.76L609.791 124L610.559 123.472L613.295 127.792C613.599 128.256 613.935 128.616 614.303 128.872C614.671 129.112 615.087 129.232 615.551 129.232L615.647 129.352L615.527 130.048L613.823 130.24ZM610.031 125.152L609.335 124.576L611.183 121.432C611.535 120.84 611.871 120.376 612.191 120.04C612.511 119.704 612.863 119.464 613.247 119.32C613.647 119.16 614.127 119.08 614.687 119.08C614.975 119.4 615.127 119.704 615.143 119.992C615.175 120.264 615.175 120.624 615.143 121.072L614.951 121.24C614.391 121 613.927 120.88 613.559 120.88C613.207 120.88 612.895 120.992 612.623 121.216C612.367 121.424 612.111 121.744 611.855 122.176L610.031 125.152ZM604.775 130.168L604.895 129.16C605.455 129.064 605.823 128.92 605.999 128.728C606.191 128.536 606.287 128.2 606.287 127.72L606.311 121.048C606.311 120.68 606.263 120.44 606.167 120.328C606.087 120.2 605.911 120.136 605.639 120.136C605.527 120.136 605.399 120.144 605.255 120.16C605.111 120.16 605.039 120.16 605.039 120.16L604.991 120.064L605.111 119.128C605.111 119.128 605.231 119.128 605.471 119.128C605.727 119.128 606.015 119.136 606.335 119.152C606.671 119.152 606.959 119.152 607.199 119.152C607.391 119.152 607.607 119.144 607.847 119.128C608.103 119.112 608.343 119.104 608.567 119.104C608.807 119.088 608.999 119.072 609.143 119.056C609.287 119.04 609.359 119.032 609.359 119.032L609.287 120.04C608.791 120.104 608.479 120.216 608.351 120.376C608.223 120.536 608.143 120.888 608.111 121.432C608.079 122.136 608.039 122.896 607.991 123.712C607.959 124.512 607.927 125.28 607.895 126.016C607.879 126.752 607.871 127.368 607.871 127.864C607.871 128.312 607.927 128.616 608.039 128.776C608.167 128.936 608.391 129.016 608.711 129.016C608.871 129.016 609.031 129.008 609.191 128.992C609.367 128.976 609.455 128.968 609.455 128.968L609.503 129.04L609.335 130.048C609.335 130.048 609.271 130.04 609.143 130.024C609.031 130.024 608.887 130.024 608.711 130.024C608.535 130.024 608.351 130.016 608.159 130C607.967 130 607.791 130 607.631 130C607.263 130 606.855 130.008 606.407 130.024C605.975 130.056 605.599 130.08 605.279 130.096C604.959 130.128 604.791 130.152 604.775 130.168ZM624.575 130.288C623.935 130.288 623.431 130.128 623.063 129.808C622.711 129.472 622.503 128.984 622.439 128.344L622.343 128.32C621.959 128.704 621.591 129.04 621.239 129.328C620.903 129.6 620.599 129.816 620.327 129.976C620.071 130.12 619.863 130.192 619.703 130.192C619.111 130.192 618.583 130.064 618.119 129.808C617.655 129.552 617.287 129.2 617.015 128.752C616.759 128.304 616.631 127.792 616.631 127.216C616.631 126.752 616.743 126.344 616.967 125.992C617.207 125.64 617.519 125.408 617.903 125.296L622.463 124.048L622.487 122.992C622.487 122.192 622.303 121.568 621.935 121.12C621.567 120.672 621.047 120.448 620.375 120.448C619.927 120.448 619.455 120.552 618.959 120.76C618.463 120.968 617.975 121.264 617.495 121.648L617.375 121.576L617.087 120.544C617.503 120.304 617.967 120.056 618.479 119.8C618.991 119.528 619.479 119.304 619.943 119.128C620.407 118.952 620.759 118.864 620.999 118.864C621.703 118.864 622.303 118.992 622.799 119.248C623.295 119.488 623.671 119.84 623.927 120.304C624.199 120.752 624.335 121.304 624.335 121.96C624.335 122.168 624.311 122.504 624.263 122.968C624.231 123.432 624.183 123.952 624.119 124.528C624.055 125.088 623.999 125.632 623.951 126.16C623.919 126.688 623.903 127.128 623.903 127.48C623.903 127.832 623.991 128.104 624.167 128.296C624.343 128.488 624.583 128.584 624.887 128.584C625.159 128.584 625.431 128.52 625.703 128.392C625.975 128.248 626.183 128.112 626.327 127.984L626.663 128.368C626.535 128.576 626.359 128.816 626.135 129.088C625.927 129.344 625.687 129.584 625.415 129.808C625.159 130.032 624.879 130.192 624.575 130.288ZM620.111 128.56C620.415 128.56 620.767 128.456 621.167 128.248C621.583 128.024 621.959 127.744 622.295 127.408L622.415 124.96L619.151 125.944C618.687 126.088 618.455 126.424 618.455 126.952C618.455 127.4 618.607 127.784 618.911 128.104C619.231 128.408 619.631 128.56 620.111 128.56Z" fill="white"/>
</g>
<path d="M14.0197 35.6392L14.3261 36.1511C11.9788 38.4034 10.7866 41.7526 10.4531 45.0567C9.28211 55.9375 19.0585 70.2815 25.6199 79.7069C30.6566 86.9592 37.2982 94.7445 36.2295 104.652C35.2851 113.272 26.5794 119.352 18.5406 119.315L18.616 118.725C23.2496 118.034 26.7573 114.847 27.3683 109.04C28.9141 94.7531 2.23879 74.9536 4.48581 54.0608C5.2381 46.723 7.82427 40.0742 14.0197 35.6392ZM10.4948 16.0587C11.4394 7.43852 20.1451 1.35789 28.1839 1.39501L28.1084 1.98515C23.4748 2.67665 20.0012 5.86606 19.356 11.6701C17.8102 25.9572 44.5781 44.9226 42.331 65.8156C41.5447 73.1507 38.8685 80.5991 32.6705 85.0689L32.3642 84.557C34.7115 82.3044 35.9037 78.9554 36.2371 75.6514C37.4083 64.7705 27.2987 50.2982 20.7396 40.8377C15.7006 33.6202 9.52587 25.0275 10.4948 16.0587Z" fill="white"/>
<path d="M113.065 56.0825C113.089 59.0643 112.799 62.0404 112.202 64.9619C111.714 67.4434 110.844 69.8343 109.624 72.0496C108.6 73.9369 107.14 75.5527 105.367 76.7627C103.64 77.8909 101.615 78.4762 99.5534 78.4428C97.1565 78.4428 95.1791 77.7749 93.6209 76.4389C92.0998 75.1561 90.977 73.4645 90.3852 71.5639H90.2162V96.7124H81.1342V35.2693H90.0617V41.1696H90.2199C90.8625 39.2085 91.9574 37.4263 93.4161 35.9671C94.8375 34.5761 96.8833 33.8793 99.5534 33.877C101.604 33.839 103.618 34.4248 105.328 35.5572C107.07 36.7704 108.511 38.3681 109.538 40.2271C110.763 42.429 111.648 44.8041 112.163 47.2715C112.784 50.1669 113.086 53.1215 113.065 56.0825ZM103.81 56.0825C103.818 54.2159 103.681 52.3515 103.401 50.5059C103.182 48.9591 102.77 47.4458 102.175 46.0015C101.704 44.8555 100.976 43.8334 100.046 43.0153C99.1775 42.2789 98.0705 41.8848 96.9324 41.9072C95.8212 41.8954 94.7435 42.2895 93.9015 43.0153C92.9685 43.8368 92.2311 44.8572 91.7442 46.0015C91.1147 47.4402 90.6735 48.9541 90.4319 50.5059C89.8366 54.1999 89.8366 57.9652 90.4319 61.6591C90.6742 63.225 91.1127 64.7543 91.7371 66.2102C92.2173 67.3718 92.9549 68.409 93.8944 69.2434C94.7363 69.9691 95.8138 70.3632 96.9252 70.3514C98.0634 70.3739 99.1704 69.9797 100.039 69.2434C100.978 68.4129 101.709 67.3743 102.175 66.2102C102.766 64.7525 103.178 63.2277 103.401 61.67C103.682 59.8209 103.819 57.9528 103.81 56.0825Z" fill="white"/>
<path d="M139.02 70.8228C138.416 73.1146 137.331 74.9061 135.745 76.1833C134.159 77.4607 132.063 78.1119 129.442 78.1119C128.187 78.1033 126.943 77.883 125.761 77.4607C124.478 77.0078 123.315 76.2697 122.359 75.302C121.274 74.1735 120.428 72.8373 119.871 71.3732C119.164 69.495 118.829 67.497 118.886 65.4909C118.886 62.5454 119.418 60.1301 120.483 58.2449C121.465 56.4482 122.869 54.9172 124.574 53.7835C126.267 52.6787 128.159 51.9127 130.143 51.5277C132.118 51.1264 134.128 50.9215 136.144 50.916H138.434V49.61C138.434 46.823 137.876 44.8154 136.759 43.5874C135.642 42.3594 134.153 41.7452 132.293 41.7452C130.788 41.7267 129.305 42.1092 127.997 42.8535C126.711 43.5948 125.586 44.584 124.685 45.7642L120.263 39.9465C121.817 38.014 123.81 36.4817 126.077 35.4779C128.252 34.4489 130.624 33.9027 133.031 33.877C135.597 33.877 137.768 34.2872 139.542 35.1073C141.274 35.8864 142.764 37.1181 143.856 38.6728C145.019 40.4113 145.812 42.3707 146.186 44.4292C146.675 46.9939 146.909 49.6006 146.883 52.2112V77.036H139.171V70.8228H139.02ZM138.693 57.4713H135.993C134.88 57.4683 133.77 57.5659 132.674 57.7627C131.667 57.9286 130.706 58.3037 129.852 58.8635C129.013 59.4317 128.336 60.2076 127.885 61.1158C127.355 62.2587 127.105 63.5119 127.156 64.7713C127.156 66.9624 127.63 68.5704 128.594 69.6103C129.002 70.0926 129.51 70.4807 130.082 70.7484C130.654 71.0159 131.277 71.1566 131.909 71.1608C133.065 71.1964 134.196 70.8203 135.101 70.0995C135.992 69.3685 136.705 68.4462 137.19 67.4012C137.719 66.2341 138.092 65.0027 138.301 63.7386C138.538 62.4545 138.658 61.1516 138.661 59.8458L138.693 57.4713Z" fill="white"/>
<path d="M170.117 36.2551C170.8 35.5034 171.632 34.9033 172.561 34.4937C173.49 34.084 174.495 33.8741 175.51 33.877H176.2C176.442 33.8867 176.68 33.943 176.901 34.0425L176.412 43.5442C175.773 43.3736 175.114 43.2901 174.453 43.296C173.292 43.2815 172.163 43.6734 171.26 44.404C170.278 45.2012 169.47 46.1904 168.884 47.311C168.196 48.5971 167.699 49.9762 167.409 51.4055C167.081 52.9427 166.916 54.5105 166.917 56.0825V77.0506H157.504V35.2693H166.593V43.2995H166.759C167.468 40.1888 168.588 37.8404 170.117 36.2551Z" fill="white"/>
<path d="M199.258 70.8228C198.653 73.1144 197.568 74.9062 195.982 76.1834C194.396 77.4608 192.297 78.1119 189.679 78.1119C188.423 78.1031 187.177 77.8828 185.994 77.4608C184.713 77.0081 183.551 76.27 182.596 75.302C181.51 74.1738 180.662 72.8373 180.105 71.3732C179.402 69.5002 179.067 67.5089 179.12 65.5087C179.12 62.5634 179.651 60.1481 180.712 58.2628C181.699 56.4665 183.105 54.9357 184.811 53.8016C186.503 52.6955 188.393 51.9293 190.377 51.5458C192.357 51.1423 194.371 50.9361 196.392 50.9304H198.682V49.61C198.682 46.8231 198.122 44.8155 197.003 43.5874C195.884 42.3594 194.396 41.7453 192.541 41.7453C191.036 41.7263 189.553 42.1085 188.245 42.8535C186.959 43.5948 185.834 44.5841 184.933 45.7639L180.507 39.9463C182.064 38.0182 184.057 36.4887 186.321 35.4851C188.5 34.4556 190.876 33.9097 193.285 33.8842C195.843 33.8842 198.011 34.2944 199.79 35.1145C201.522 35.8933 203.013 37.1248 204.104 38.68C205.271 40.4167 206.066 42.3769 206.437 44.4364C206.925 47.0011 207.158 49.6078 207.131 52.2184V77.0432H199.423V70.8228H199.258ZM198.934 57.4713H196.23C195.117 57.4681 194.007 57.5656 192.912 57.7627C191.904 57.9286 190.943 58.3037 190.089 58.8636C189.25 59.4318 188.573 60.2076 188.123 61.1159C187.593 62.2595 187.34 63.5117 187.386 64.7713C187.386 66.9622 187.864 68.5705 188.824 69.6103C189.233 70.0926 189.741 70.4808 190.313 70.7485C190.886 71.0162 191.51 71.1567 192.142 71.1609C193.297 71.1959 194.427 70.8198 195.331 70.0995C196.221 69.3676 196.934 68.4455 197.42 67.4012C197.957 66.2396 198.341 65.0133 198.564 63.7529C198.8 62.4689 198.921 61.166 198.923 59.8602L198.934 57.4713Z" fill="white"/>
<path d="M246.9 75.9028C246.93 78.7535 246.627 81.598 246.001 84.3793C245.477 86.7427 244.472 88.9728 243.05 90.9308C241.685 92.765 239.884 94.2294 237.811 95.1905C235.682 96.2027 233.09 96.7089 230.034 96.7089C227.192 96.7193 224.378 96.1474 221.765 95.0287C219.311 94.0244 217.103 92.5013 215.293 90.5638L220.287 83.933C221.501 85.2502 222.925 86.3565 224.501 87.2072C226.125 88.0843 227.944 88.535 229.79 88.5167C231.134 88.5644 232.465 88.2352 233.633 87.567C234.676 86.9521 235.543 86.0784 236.15 85.0304C236.817 83.8634 237.274 82.5885 237.502 81.2636C237.778 79.7104 237.91 78.1349 237.894 76.5577V71.4811H237.732C237.122 73.3453 235.967 74.9835 234.417 76.1834C232.749 77.4882 230.68 78.1702 228.564 78.1119C226.481 78.1566 224.431 77.586 222.671 76.4713C220.912 75.3109 219.463 73.7389 218.45 71.8913C217.256 69.7118 216.401 67.3629 215.915 64.9259C215.32 62.0431 215.032 59.1053 215.056 56.1618C215.035 53.161 215.339 50.1671 215.962 47.232C216.463 44.7621 217.347 42.3853 218.579 40.1876C219.614 38.3434 221.055 36.7598 222.793 35.557C224.501 34.4235 226.514 33.8373 228.564 33.8768C231.236 33.8768 233.283 34.5737 234.705 35.9671C236.155 37.4167 237.223 39.2045 237.811 41.1697H238.059V35.2693H246.9V75.9028ZM238.142 56.0825C238.15 54.2142 237.998 52.3486 237.689 50.5059C237.447 48.9546 237.007 47.4409 236.38 46.0015C235.892 44.8579 235.155 43.8378 234.223 43.0153C233.381 42.2888 232.303 41.8949 231.192 41.9073C230.055 41.8858 228.949 42.2796 228.082 43.0153C227.15 43.8314 226.421 44.854 225.953 46.0015C225.355 47.4451 224.942 48.9586 224.724 50.5059C224.181 54.2038 224.181 57.9612 224.724 61.6592C224.941 63.2205 225.351 64.7493 225.942 66.2102C226.403 67.375 227.133 68.4142 228.071 69.2434C228.939 69.979 230.044 70.3729 231.181 70.3514C232.292 70.3637 233.37 69.9699 234.212 69.2434C235.15 68.4077 235.888 67.3711 236.369 66.2102C236.992 64.7572 237.432 63.2319 237.678 61.67C237.992 59.8242 238.147 57.9548 238.142 56.0825Z" fill="white"/>
<path d="M270.721 36.2551C271.402 35.5036 272.236 34.9036 273.164 34.4939C274.095 34.0845 275.099 33.8741 276.113 33.877H276.807C277.048 33.8877 277.285 33.9437 277.505 34.0425L277.019 43.5442C276.38 43.3731 275.718 43.2896 275.057 43.296C273.897 43.2825 272.769 43.6743 271.866 44.404C270.886 45.2012 270.077 46.1904 269.49 47.311C268.804 48.5976 268.308 49.9767 268.016 51.4055C267.688 52.9429 267.523 54.5105 267.523 56.0825V77.0506H258.111V35.2693H267.197V43.2995H267.377C268.078 40.1888 269.194 37.8404 270.721 36.2551Z" fill="white"/>
<path d="M299.865 70.8228C299.258 73.1144 298.172 74.9062 296.586 76.1834C295.001 77.4608 292.904 78.1119 290.288 78.1119C289.032 78.1031 287.786 77.8828 286.601 77.4608C285.32 77.0089 284.158 76.2708 283.203 75.302C282.117 74.1723 281.268 72.8366 280.706 71.3732C280.007 69.499 279.674 67.5084 279.724 65.5087C279.724 62.5634 280.257 60.1481 281.32 58.2628C282.302 56.4653 283.706 54.934 285.412 53.8016C287.105 52.6968 288.997 51.9305 290.981 51.5458C292.961 51.1423 294.977 50.9361 296.995 50.9304H299.29V49.61C299.29 46.8231 298.73 44.8155 297.61 43.5874C296.492 42.3594 295.004 41.7453 293.148 41.7453C291.643 41.7255 290.16 42.108 288.852 42.8535C287.566 43.5946 286.438 44.5841 285.538 45.7639L281.115 39.9463C282.67 38.0182 284.664 36.4887 286.929 35.4851C289.103 34.4564 291.477 33.9104 293.883 33.8842C296.452 33.8842 298.621 34.2944 300.393 35.1145C302.126 35.8936 303.616 37.1253 304.707 38.68C305.872 40.4177 306.666 42.3777 307.039 44.4364C307.528 47.0011 307.76 49.6078 307.735 52.2184V77.0432H300.023V70.8228H299.865ZM299.53 57.4713H296.837C295.724 57.4679 294.614 57.5654 293.518 57.7627C292.511 57.9279 291.549 58.303 290.693 58.8636C289.856 59.4327 289.177 60.2084 288.726 61.1159C288.203 62.2553 287.956 63.5033 288.008 64.7568C288.008 66.9478 288.486 68.5561 289.446 69.5958C289.854 70.0785 290.362 70.4672 290.932 70.7349C291.505 71.0026 292.129 71.1431 292.761 71.1465C293.916 71.1821 295.046 70.806 295.949 70.0852C296.84 69.3543 297.553 68.4319 298.039 67.3869C298.577 66.226 298.965 64.9995 299.187 63.7386C299.424 62.4545 299.542 61.1517 299.544 59.8459L299.53 57.4713Z" fill="white"/>
<path d="M350.121 56.0825C350.148 59.064 349.859 62.0401 349.264 64.9619C348.773 67.4432 347.905 69.8338 346.683 72.0496C345.659 73.9359 344.203 75.5514 342.431 76.7626C340.704 77.8901 338.678 78.4751 336.617 78.4428C334.221 78.4428 332.239 77.7748 330.677 76.4389C329.157 75.1543 328.034 73.4633 327.442 71.5638H327.284V96.7123H318.198V35.2693H327.121V41.1696H327.287C327.923 39.2077 329.017 37.4248 330.475 35.9671C331.896 34.5761 333.945 33.8792 336.617 33.877C338.661 33.8415 340.667 34.4272 342.37 35.5572C344.119 36.7699 345.563 38.3706 346.589 40.2342C347.816 42.4364 348.699 44.8115 349.213 47.2786C349.832 50.1718 350.138 53.1237 350.121 56.0825ZM340.874 56.0825C340.882 54.2159 340.743 52.3515 340.464 50.5059C340.245 48.9586 339.833 47.4451 339.236 46.0015C338.769 44.8542 338.041 43.8316 337.108 43.0152C336.242 42.2789 335.134 41.8847 333.997 41.9072C332.886 41.8954 331.81 42.2892 330.969 43.0152C330.036 43.838 329.3 44.8581 328.812 46.0015C328.185 47.4411 327.748 48.9549 327.506 50.5059C326.907 54.1993 326.907 57.9656 327.506 61.6591C327.746 63.224 328.18 64.7528 328.797 66.2102C329.278 67.3708 330.016 68.4077 330.954 69.2433C331.795 69.9691 332.871 70.3632 333.982 70.3514C335.119 70.3738 336.227 69.9797 337.096 69.2433C338.031 68.4139 338.759 67.3748 339.221 66.2102C339.815 64.7533 340.228 63.2282 340.45 61.67C340.736 59.8211 340.877 57.9531 340.874 56.0825Z" fill="white"/>
<path d="M379.911 77.0506V50.8334C379.909 49.7807 379.855 48.7287 379.744 47.6817C379.65 46.6853 379.415 45.7069 379.053 44.7747C378.732 43.9499 378.194 43.2276 377.495 42.6844C376.718 42.1379 375.783 41.8645 374.835 41.9073C372.757 41.9073 371.109 42.9434 369.88 45.0229C368.651 47.1024 368.046 49.7179 368.046 52.8985V77.0649H358.8V15.1216H368.046V41.7453H368.209C368.92 39.6139 370.179 37.7068 371.857 36.2156C373.572 34.6564 375.738 33.8771 378.362 33.8771C380.657 33.8771 382.512 34.3566 383.931 35.316C385.345 36.2689 386.476 37.5851 387.206 39.1262C388.01 40.8469 388.534 42.6844 388.763 44.5695C389.035 46.6477 389.173 48.7413 389.173 50.8371V77.0541L379.911 77.0506Z" fill="white"/>
<path d="M450.701 49.3006C449.536 43.519 444.472 39.2736 437.454 39.2736C428.378 39.2736 422.598 46.3324 422.598 57.3705C422.598 68.4085 428.378 75.4675 437.494 75.4675C444.398 75.4675 449.465 71.5638 450.664 65.7534H453.588C452.352 73.0391 446.037 78.1082 437.494 78.1082C426.65 78.1082 419.672 70.1104 419.672 57.3814C419.672 44.7315 426.65 36.622 437.454 36.622C446.123 36.622 452.391 42.1771 453.588 49.3115L450.701 49.3006Z" fill="white"/>
<path d="M458.245 57.3814C458.245 44.6559 465.485 36.622 476.222 36.622C486.957 36.622 494.232 44.6559 494.232 57.3814C494.232 70.1067 486.989 78.1082 476.222 78.1082C465.453 78.1082 458.245 70.0743 458.245 57.3814ZM491.261 57.3814C491.261 46.1958 485.296 39.2845 476.215 39.2845C467.134 39.2845 461.169 46.1958 461.169 57.3814C461.169 68.567 467.134 75.4783 476.213 75.4783C485.289 75.4783 491.261 68.4949 491.261 57.3814Z" fill="white"/>
<path d="M503.079 39.6981H497.452V37.1472H503.079V31.3908C503.079 24.7818 506.344 22.0042 512.01 22.0042C513.009 21.9802 514.006 22.094 514.973 22.3424V24.8968C514.053 24.6615 513.108 24.5478 512.158 24.5586C508.293 24.5586 506.006 26.4726 506.006 31.578V37.1472H514.67V39.6981H506.006V77.583H503.079V39.6981Z" fill="white"/>
<path d="M523.188 39.6981H517.562V37.1472H523.188V31.3908C523.188 24.7818 526.453 22.0042 532.119 22.0042C533.119 21.9797 534.116 22.0935 535.083 22.3424V24.8969C534.165 24.6613 533.22 24.5476 532.27 24.5586C528.405 24.5586 526.115 26.4726 526.115 31.578V37.1472H534.784V39.6981H526.115V77.583H523.188V39.6981Z" fill="white"/>
<path d="M571.665 66.2823C570.352 73.1181 564.114 78.1082 555.195 78.1082C544.238 78.1082 537.186 70.4089 537.186 57.4209C537.186 44.8789 544.238 36.622 554.892 36.622C565.32 36.622 572.151 44.3932 572.151 56.1438V57.8345H540.152V57.9822C540.152 69.0201 546.156 75.4783 555.235 75.4783C562.625 75.4783 567.541 71.5747 568.706 66.2823H571.665ZM540.186 55.3558H569.187C569.153 45.782 563.373 39.2484 554.857 39.2484C546.449 39.2484 540.626 45.7029 540.186 55.3558Z" fill="white"/>
<path d="M611.509 66.2823C610.198 73.1181 603.96 78.1082 595.039 78.1082C584.085 78.1082 577.03 70.4089 577.03 57.4209C577.03 44.8789 584.085 36.622 594.741 36.622C605.167 36.622 611.997 44.3932 611.997 56.1438V57.8345H580.001V57.9822C580.001 69.0201 586 75.4783 595.101 75.4783C602.492 75.4783 607.407 71.5747 608.57 66.2823H611.509ZM580.033 55.3558H609.036C608.997 45.782 603.22 39.2484 594.701 39.2484C586.289 39.2484 580.482 45.7029 580.033 55.3558Z" fill="white"/>
<defs>
<filter id="filter0_d_562_21" x="521.632" y="112.312" width="108.031" height="34.408" filterUnits="userSpaceOnUse" color-interpolation-filters="sRGB">
<feFlood flood-opacity="0" result="BackgroundImageFix"/>
<feColorMatrix in="SourceAlpha" type="matrix" values="0 0 0 0 0 0 0 0 0 0 0 0 0 0 0 0 0 0 127 0" result="hardAlpha"/>
<feOffset dy="10"/>
<feGaussianBlur stdDeviation="1.5"/>
<feComposite in2="hardAlpha" operator="out"/>
<feColorMatrix type="matrix" values="0 0 0 0 0 0 0 0 0 0 0 0 0 0 0 0 0 0 0.25 0"/>
<feBlend mode="normal" in2="BackgroundImageFix" result="effect1_dropShadow_562_21"/>
<feBlend mode="normal" in="SourceGraphic" in2="effect1_dropShadow_562_21" result="shape"/>
</filter>
</defs>
</svg>
