<svg width="17" height="49" viewBox="0 0 17 49" fill="none" xmlns="http://www.w3.org/2000/svg">
<path d="M4.6811 14.4324L4.80527 14.6397C3.85404 15.5518 3.37095 16.9081 3.23579 18.2461C2.76128 22.6524 6.72296 28.4611 9.38182 32.278C11.4228 35.2149 14.1142 38.3676 13.6811 42.3796C13.2984 45.8704 9.77062 48.3328 6.51307 48.3178L6.54364 48.0788C8.4213 47.7988 9.84272 46.5082 10.0903 44.1568C10.7167 38.3711 -0.0928717 30.3531 0.817682 21.8924C1.12253 18.9209 2.17052 16.2284 4.6811 14.4324ZM3.2527 6.50306C3.63546 3.01226 7.16328 0.549856 10.4208 0.564888L10.3902 0.803873C8.51255 1.0839 7.10495 2.37548 6.84353 4.72588C6.21709 10.5116 17.0642 18.1918 16.1536 26.6526C15.835 29.623 14.7505 32.6393 12.2389 34.4494L12.1148 34.2421C13.066 33.3299 13.5491 31.9737 13.6842 30.6357C14.1588 26.2294 10.0621 20.3687 7.4042 16.5376C5.36225 13.6148 2.86006 10.1351 3.2527 6.50306Z" fill="white"/>
</svg>
